<svg height="682.66669pt" viewBox="-21 -21 682.66669 682.66669" width="682.66669pt" xmlns="http://www.w3.org/2000/svg"><path d="m320 89.488281c-127.109375 0-230.511719 103.402344-230.511719 230.511719s103.402344 230.511719 230.511719 230.511719 230.511719-103.402344 230.511719-230.511719-103.402344-230.511719-230.511719-230.511719zm77.890625 351.796875c-68.164063 28.800782-146.371094-4.503906-173.515625-72.480468h-17.289062c-10.390626 0-18.824219-8.433594-18.824219-18.824219 0-10.40625 8.433593-18.824219 18.824219-18.824219h8.390624c-.613281-7.351562-.648437-14.507812-.007812-22.335938h-8.382812c-10.390626 0-18.824219-8.421874-18.824219-18.824218 0-10.390625 8.433593-18.824219 18.824219-18.824219h17.167968c24.21875-61 93.800782-98.9375 163.183594-76.371094 9.890625 3.210938 15.296875 13.828125 12.085938 23.714844-3.214844 9.886719-13.839844 15.296875-23.734376 12.085937-44.269531-14.40625-88.304687 5.734376-109.5625 40.570313h96.328126c10.40625 0 18.820312 8.433594 18.820312 18.824219 0 10.402344-8.414062 18.824218-18.820312 18.824218h-109.265626c-.875 7.628907-.828124 15.105469 0 22.335938h94.917969c10.390625 0 18.828125 8.417969 18.828125 18.824219 0 10.390625-8.4375 18.824219-18.828125 18.824219h-82.070312c23.496093 38.507812 73.023437 56.421874 117.097656 37.796874 9.574219-4.042968 20.617187.4375 24.671875 10.015626 4.042969 9.574218-.441406 20.613281-10.015625 24.667968zm0 0"/><path d="m320 0c-176.726562 0-320 143.273438-320 320s143.273438 320 320 320 320-143.273438 320-320-143.273438-320-320-320zm0 588.160156c-147.867188 0-268.160156-120.292968-268.160156-268.160156s120.292968-268.160156 268.160156-268.160156c148.226562 0 268.160156 119.957031 268.160156 268.160156 0 148.226562-119.957031 268.160156-268.160156 268.160156zm0 0"/></svg>