<svg xmlns="http://www.w3.org/2000/svg" viewBox="0 0 2000 550"><path d="M216.9 240.4c-4 15.1-6 29.3-6 42.5 0 2.2-3.8 3.2-11.3 2.8 -18.6-0.9-41.7-1.4-69.2-1.4 -29.3 0-55.3 0.6-78.2 1.8 -3.4 0.2-5.5 0-6.4-0.8 -0.8-0.8-1.2-2.6-1.2-5.4 0-3.1 2.5-4.8 7.6-5.3 11.6-1.2 17.3-7.4 17.3-18.6V92.6c0-8.3-1.1-14.4-3.4-18.4 -2.7-4.7-7.9-8.4-15.6-11 -4.6-1.6-6.6-4.3-6-8 0.4-2.6 1.1-4.1 2.3-4.6 1.2-0.5 4.3-0.4 9.2 0.2 17.2 1.9 37.8 1.8 61.6-0.3 4.3-0.3 6.7-0.5 7.3-0.3 2.4 0.4 3.7 2 4.1 4.8 0.4 3.2-0.4 5.4-2.3 6.6 -0.7 0.5-3.1 1.2-7.3 2.1 -8.3 1.9-13.4 4-15.6 6.5 -2.1 2.4-3.2 7.5-3.2 15.3v158.4c0 9.9 3.3 16.7 10 20.3 6.7 3.6 18.8 5.4 36.4 5.4 16.8 0 29.2-2.1 37.3-6.5 8.1-4.3 14.7-12.4 19.7-24.3 1.9-4.7 4.8-6.3 8.7-4.8C216.4 234.8 217.9 237 216.9 240.4z"/><path d="M506.6 168c0 34.1-12.6 63-37.9 86.7 -24.8 23.4-54.6 35-89.4 35 -36.6 0-67-11-91.1-32.9 -24.8-22.6-37.2-51.9-37.2-87.8 0-34.7 12.6-63.8 37.7-87.4 24.8-23.1 55-34.7 90.6-34.7 36.3 0 66.5 11.3 90.6 33.8C494.4 103.6 506.6 132.7 506.6 168zM470.7 174c0-34.3-9.4-61.5-28.1-81.4 -18-19.1-41.9-28.7-71.5-28.7 -24.5 0-44.7 9.1-60.4 27.2C294.9 109.2 287 132.8 287 161.8c0 34.8 9.1 62.2 27.4 82.1 17.8 19.4 42 29 72.6 29 24.7 0 44.8-9.1 60.4-27.2C462.9 227.5 470.7 203.6 470.7 174z"/><path d="M805.3 179.1c0 3.8-2.8 6.1-8.3 6.9 -7.8 1.2-12.3 2-13.6 2.5 -4.2 1.8-6.4 5.2-6.4 10.3v55.4c0 7-9.1 14.4-27.2 22.3 -20.4 8.9-43.4 13.3-68.8 13.3 -37 0-67.9-11-92.6-33.1 -25-22.4-37.5-51.1-37.5-86.2 0-35.7 12.9-65.5 38.8-89.2 25-22.9 55.1-34.3 90.3-34.3 27 0 50 3.3 68.8 9.7 13.9 4.7 21.2 9.4 21.8 14.2 1.2 9 1.8 22.2 1.8 39.8 0 3.9-2.4 6-7.3 6.2 -5.7 0.2-9.1-1.3-10.4-4.8 -6.5-17.6-15.6-30.2-27.3-38 -11.7-7.7-27.9-11.6-48.4-11.6 -28.3 0-50.4 8.7-66.4 26 -16.4 18.1-24.6 43.9-24.6 77.5 0 32.5 9.4 58.6 28.3 78.4 18.3 19.4 41.8 29 70.6 29 14.8 0 28.5-2.6 41.2-8 12.2-5.1 18.2-10.2 18.2-15.4v-36.8c0-8.7-1.8-15-5.3-18.9 -3.1-3.5-9.1-6.7-18.2-9.4 -6.7-2-9.9-4.4-9.6-7.3 0.5-3.1 1.3-5 2.4-5.7 1.1-0.7 4-0.8 8.6-0.2 25.1 3.1 49.6 3.3 73.3 0.7 1.3-0.1 2.4-0.2 3.2-0.2C803.8 172.4 805.3 174.7 805.3 179.1z"/><path d="M936.1 55.6c0 3-3.2 5.4-9.6 7.3 -14.3 4.3-21.4 9.8-21.4 16.6V251.7c0 11.1 6.6 17.8 19.6 20.2 6.5 1.2 9.7 3.5 9.7 6.9 0 3-0.6 4.8-1.7 5.5 -1.1 0.7-4.2 0.9-9.1 0.7 -31.1-1.3-55.2-1.3-72.2 0 -4.4 0.4-6.9-0.5-7.6-2.5 -0.2-0.8-0.3-2.1-0.3-3.7 0-2.4 2.7-4.1 8-5.3 9.9-2.2 15.6-3.8 17.2-4.8 3.8-2.4 5.7-7.2 5.7-14.5V80.6c0-9.8-6.6-15.8-19.8-18 -5.5-0.9-8.3-2.6-8.3-5.1 0-3.4 0.4-5.5 1.3-6.3 0.9-0.8 3-1 6.3-0.6 23 2.5 46.8 2.2 71.3-0.7 4.6-0.6 7.3-0.8 8.1-0.5C935.2 49.8 936.1 52 936.1 55.6z"/><path d="M1252.5 55.3c0 3-3.2 5.4-9.6 7.3 -14.2 4-21.2 12.2-21.2 24.6v127.2c0 26.8 0.4 48.4 1.1 64.8 0.2 6.3-1.2 9.8-4.4 10.6 -5.3 1.3-9.8-1.5-13.4-8.3 -5.9-11.2-29-38.8-69.4-82.8 -33.7-36.7-66.4-71-98-102.8 -1.1-1.1-2.1-1.3-3.2-0.9 -1.2 0.6-1.8 2-1.8 4.1v145.1c0 15.6 7.8 24.8 23.5 27.8 6.5 1.3 9.7 3.6 9.7 6.9 0 4.5-3.7 6.6-11 6.2 -28.1-1.2-49.9-1.2-65.5 0 -5.1 0.4-7.6-1.7-7.6-6.2 0-2.5 2.5-4.2 7.6-5.3 9.1-2.1 15.2-5 18.2-8.7 3.1-3.7 4.6-9.8 4.6-18.6V89.6c0-6.8-1.4-12.1-4.2-15.7 -2.7-3.3-8-6.7-15.7-10.3 -5.8-2.7-8.6-5.5-8.3-8.3 0.4-3.2 3-4.4 8-3.7 15.3 2.1 28.6 2.6 39.8 1.4 5.8-0.6 11 1.6 15.6 6.6l148.3 158c2 2.2 3.4 3.4 4.1 3.4 0.9 0 1.4-1.6 1.4-4.8V88.2c0-15-7.8-23.8-23.5-26.5 -5.5-0.9-8.3-2.6-8.3-5 0-5 2.5-7.1 7.6-6.5 19.4 2.1 40.9 1.9 64.8-0.7 4.1-0.5 6.8-0.5 8-0.2C1251.5 49.8 1252.5 51.8 1252.5 55.3z"/><path d="M1472.2 240.4c-3.3 14-5.5 28.2-6.5 42.5 -0.1 2.2-3.7 3.2-10.8 2.8 -18.4-0.9-41.9-1.4-70.4-1.4 -31.4 0-58.4 0.6-81 1.8 -5.1 0.2-7.6-1.8-7.6-6.2 0-3.1 2.5-4.8 7.6-5.3 7.1-0.8 11.6-2.2 13.6-4.1 2.5-2.4 3.7-7.3 3.7-14.9V92.6c0-11-1-17.9-3-20.8 -2-2.9-7.5-5.7-16.6-8.6 -4.8-1.5-6.6-4.4-5.3-8.7 0.6-2.2 1.5-3.5 2.8-3.7 1.2-0.3 4.3-0.1 9.4 0.7 7.6 1.2 27.3 1.8 59.1 1.8 31.7 0 59.1-0.7 81.9-2.1 7.7-0.5 11.5 0.1 11.5 1.6 0 0.6-0.1 1.2-0.3 1.8 -2.5 11.6-3.5 24.8-3.2 39.8 0.1 3.7-1.6 5.5-5.1 5.5 -3.3 0-5.6-1.6-6.9-4.8 -3.3-8.3-6.2-13.9-8.7-16.8 -3.8-4.5-9.2-7.3-16.3-8.5 -5.7-1.1-25.6-1.6-59.8-1.6 -3.9 0-6.4 0.7-7.4 2 -0.6 0.7-0.9 2.5-0.9 5.3v74c0 3 1.7 4.4 5.1 4.4 10.9-0.2 26.4-1 46.7-2.3 3.5-0.3 6.1-2.1 7.8-5.1 1.3-2.4 2.7-7.3 4.1-14.7 1.1-5.1 3.8-6.9 8.3-5.5 4 0.7 5.7 2.5 5.1 5.5 -3.3 16.1-4.4 36.9-3.2 62.7 0.1 2.8-1.8 4.5-5.8 5.1 -3.5 0.5-5.6-1.5-6.2-5.8 -1.2-9.1-2.7-15.1-4.5-18 -1.8-2.9-5.3-4.6-10.3-5.2 -9.7-1.2-24.3-1.8-43.9-1.8 -2.1 0-3.2 0.8-3.2 2.5v77.2c0 11 6.4 17.7 19.1 20.2 3.2 0.6 14.2 0.9 33.1 0.9 29.4 0 47.7-10.3 55-30.8 1.8-4.8 4.7-6.4 8.7-4.8C1471.5 234.8 1473 237 1472.2 240.4z"/><path d="M1675.5 223c0 19.9-7.3 35.9-21.9 48 -15.2 12.5-36 18.8-62.5 18.8 -34.8 0-55.2-6.4-61.2-19.3 -3.7-7.8-7.3-17.7-11-29.7 -1.5-5.5-0.4-9.1 3.4-10.8 4.7-2.1 8.4-1.2 11.2 2.8 10 14.9 20.1 25.4 30.3 31.7 9.8 6 21.2 9 34.3 9 32.8 0 49.2-13.1 49.2-39.3 0-10.3-3.6-19-10.8-26.2 -7-6.7-21.4-16-43.2-27.8 -27.6-14.9-45.8-26.5-54.5-35 -10.7-10.5-16.1-23.5-16.1-38.9 0-16.4 6.9-30.4 20.6-41.9 13.7-11.6 31.3-17.3 52.7-17.3 15.1 0 29.8 1.9 44.1 5.7 11 3 17.2 6.7 18.6 11.3 3 9.6 4.9 21.4 5.8 35.4 0.2 5.1-1.5 7.9-5.1 8.5 -4.6 0.7-7.8-0.9-9.7-4.8 -7.3-14.7-15.6-25.1-24.9-31.1 -8.6-5.5-19.9-8.3-33.8-8.3 -12.4 0-22.2 2.9-29.4 8.7 -7.2 5.8-10.8 14-10.8 24.6 0 9.9 3.5 18.5 10.6 25.7 6.7 6.7 19.1 14.6 37.2 23.7 27.8 13.9 47 25.7 57.5 35.4C1669 193.5 1675.5 207.3 1675.5 223z"/><path d="M1969.5 281.1c-0.7 3.2-1.5 5.1-2.3 5.7 -0.7 0.5-2.4 0.4-5-0.3 -16.9-3.1-41.5-3.4-74-1.1 -6.1 0.5-9.5-0.7-10.1-3.5 -0.6-3.3 1.4-5.8 5.8-7.6 12.7-5.2 19.1-10 19.1-14.5 0-1.8-0.7-4.3-2.1-7.6 -8.7-20.9-16-37.7-21.8-50.4 -8.4 0.5-23.1 0.7-44.2 0.7 -17.5 0-32.3-0.5-44.6-1.4 -4.1 10.2-9.9 24.3-17.3 42.5 -1.6 4.1-2.5 7.9-2.5 11.2 0 6.6 3.6 11.4 10.8 14.5 11.1 4.7 16.5 8.3 16.3 10.8 -0.2 4-3.9 5.6-11.1 4.8 -22.2-2.4-42.7-1.6-61.6 2.1 -5 1.1-7.7-0.7-8.3-5.3 -0.5-3.1 3.4-6.4 11.5-9.9 8.7-3.7 16.1-12.1 22.1-25.3 23-49.9 37.9-82.7 44.6-98.4 16.3-37.6 27.8-68.4 34.5-92.2 0.9-3.7 5.6-7.1 14-10.3 2-0.7 4.5 2.7 7.6 10.3 25.5 61.4 54 127 85.7 196.8 5.1 11.1 13.6 18.5 25.7 22.1C1967.6 276.1 1970 278.2 1969.5 281.1zM1873.4 187.8c-7.8-17.7-19.9-45.1-36.5-82.3 -0.9-2-2-3-3.2-3 -1.2 0-2.2 1-3 3l-33.8 81.6c12.6 1 26.8 1.4 42.5 1.4C1849.1 188.5 1860.4 188.3 1873.4 187.8z"/><path d="M18 341.8v-18h1963.1v18.1H18z"/><path d="M144.8 408.1c-0.1 1.1-0.2 1.8-0.4 2.2 -0.2 0.4-0.8 0.7-1.9 0.9 -2.2 0.5-3.7-0.4-4.4-2.5 -2.6-8-5.7-13.4-9.3-16.1 -5-3.7-13.6-5.5-26-5.5 -5 0-7.8 0.5-8.3 1.6 -0.2 0.4-0.3 0.9-0.3 1.5v90.5c0 3.9 0.9 6.6 2.7 8.1s5.4 3 10.8 4.2c2.3 0.5 3.6 0.8 3.9 1 0.9 0.5 1.2 1.7 0.9 3.5 -0.2 1.4-0.8 2.2-2 2.3 -0.1 0.1-1.4 0-3.7-0.3 -16-1.4-29.2-1.4-39.6-0.2 -2.5 0.3-4.1 0.3-4.8 0 -0.6-0.3-1-1-1.2-2.2 -0.5-1.9 0.6-3.2 3.2-3.9 5.2-1.3 8.7-2.9 10.5-4.8 2.1-2.1 3.1-5.5 3.1-10.3v-88c0-1.7-1.1-2.8-3.3-3.1 -0.2-0.1-2-0.1-5.4-0.1 -11.5 0-20 2-25.4 6 -4.1 3-7.8 8.4-11 16.3 -1 2.5-2.4 3.3-4.3 2.5 -2.1-0.5-2.8-1.6-2.3-3.4 2.1-6.5 3.2-15.8 3.2-27.7 0-1.4 1.9-2 5.5-1.7 13.1 0.9 27.5 1.3 43.4 1.3 30 0 49.5-0.6 58.4-1.8 3.4-0.5 5.2 0.1 5.5 1.6C144.2 388.2 145 397.5 144.8 408.1z"/><path d="M271.8 498.8c0.1 1.4-1.1 2.1-3.5 2.1 -21.7 0-42.2-18.6-61.5-55.8 -7.4 0.4-11.4 0.5-11.9 0.5v38.1c0 2.9 0.7 4.7 2.1 5.7 1.4 0.9 4.5 1.8 9.3 2.5 3.3 0.5 5 1.7 5 3.5 0 1.5-0.3 2.5-0.8 2.8 -0.5 0.4-2.1 0.5-4.5 0.4 -10.9-0.5-22.9-0.2-35.8 0.7 -2.6 0.2-3.9-0.9-3.9-3.2 0-1.6 1.3-2.5 3.9-2.7 5.9-0.6 8.9-3.8 8.9-9.7v-87c0-5.7-3.4-9.3-10.1-10.6 -3.3-0.7-5-1.7-5-3.2 0-2.2 1.1-3.4 3.4-3.4 0.7 0 1.4 0.1 2.2 0.2 2.5 0.4 6.3 0.5 11.4 0.5 1.7 0 6-0.1 12.8-0.3 6.8-0.2 13.2-0.3 19.1-0.3 12.1 0 21.7 2.3 28.7 6.8 7.9 5 11.8 12.4 11.8 22.2 0 16.8-9.7 27.8-29 33.2 6.2 14 13.4 26.1 21.8 36.1 8.5 10.3 16.2 16 23.1 17.1C270.7 495.5 271.7 496.7 271.8 498.8zM235.3 411c0-9-2.3-15.3-6.9-19.1 -4.6-3.8-11.9-5.7-22.1-5.7 -4.5 0-7.6 0.6-9.2 1.9 -1.6 1.2-2.4 3.9-2.4 8v42.8c14.6-0.5 25.2-3 31.6-7.7C232.3 426.8 235.3 420.1 235.3 411z"/><path d="M410.6 496.8c-0.4 1.6-0.8 2.6-1.2 2.9 -0.4 0.2-1.2 0.2-2.5-0.2 -8.6-1.6-21.3-1.7-37.9-0.5 -3.1 0.2-4.9-0.4-5.2-1.8 -0.3-1.7 0.7-3 3-3.9 6.5-2.7 9.8-5.1 9.8-7.4 0-0.9-0.4-2.2-1.1-3.9 -4.5-10.7-8.2-19.3-11.2-25.9 -4.3 0.2-11.9 0.4-22.7 0.4 -9 0-16.6-0.2-22.9-0.7 -2.1 5.2-5.1 12.5-8.9 21.8 -0.8 2.1-1.3 4-1.3 5.7 0 3.4 1.9 5.9 5.5 7.4 5.7 2.4 8.5 4.3 8.4 5.5 -0.1 2.1-2 2.9-5.7 2.5 -11.4-1.2-21.9-0.8-31.6 1.1 -2.5 0.5-4-0.4-4.3-2.7 -0.2-1.6 1.7-3.3 5.9-5.1 4.5-1.9 8.3-6.2 11.4-13 11.8-25.6 19.4-42.4 22.9-50.5 8.4-19.3 14.3-35.1 17.7-47.3 0.5-1.9 2.9-3.6 7.2-5.3 1-0.4 2.3 1.4 3.9 5.3 13.1 31.5 27.7 65.1 43.9 100.9 2.6 5.7 7 9.5 13.2 11.4C409.7 494.2 410.9 495.3 410.6 496.8zM361.3 449c-4-9.1-10.2-23.1-18.7-42.2 -0.5-1-1-1.5-1.6-1.5 -0.6 0-1.1 0.5-1.5 1.5l-17.3 41.9c6.5 0.5 13.7 0.7 21.8 0.7C348.8 449.3 354.6 449.2 361.3 449z"/><path d="M566.3 381c0 1.5-1.6 2.8-4.9 3.7 -7.3 2.1-10.9 6.3-10.9 12.6v65.3c0 13.7 0.2 24.8 0.5 33.2 0.1 3.2-0.6 5-2.3 5.5 -2.7 0.7-5-0.8-6.9-4.3 -3-5.7-14.9-19.9-35.6-42.5 -17.3-18.8-34.1-36.4-50.3-52.7 -0.5-0.5-1.1-0.7-1.6-0.4 -0.6 0.3-0.9 1-0.9 2.1v74.4c0 8 4 12.7 12.1 14.3 3.3 0.7 5 1.9 5 3.5 0 2.3-1.9 3.4-5.6 3.2 -14.4-0.6-25.6-0.6-33.6 0 -2.6 0.2-3.9-0.9-3.9-3.2 0-1.3 1.3-2.2 3.9-2.7 4.7-1.1 7.8-2.6 9.4-4.4 1.6-1.9 2.4-5 2.4-9.5v-80.3c0-3.5-0.7-6.2-2.2-8.1 -1.4-1.7-4.1-3.4-8.1-5.3 -3-1.4-4.4-2.8-4.3-4.3 0.2-1.6 1.5-2.3 4.1-1.9 7.9 1.1 14.7 1.3 20.4 0.7 3-0.3 5.6 0.8 8 3.4l76.1 81.1c1 1.2 1.7 1.7 2.1 1.7 0.5 0 0.7-0.8 0.7-2.4v-65.6c0-7.7-4-12.2-12.1-13.6 -2.8-0.5-4.3-1.3-4.3-2.5 0-2.5 1.3-3.7 3.9-3.4 9.9 1.1 21 1 33.2-0.4 2.1-0.2 3.5-0.3 4.1-0.1C565.7 378.2 566.3 379.2 566.3 381z"/><path d="M668.3 467c0 10.2-3.7 18.4-11.3 24.6 -7.8 6.4-18.5 9.6-32 9.6 -17.8 0-28.3-3.3-31.4-9.9 -1.9-4-3.7-9.1-5.6-15.2 -0.8-2.8-0.2-4.7 1.7-5.5 2.4-1.1 4.3-0.6 5.7 1.5 5.1 7.6 10.3 13 15.5 16.3 5 3.1 10.9 4.6 17.6 4.6 16.8 0 25.2-6.7 25.2-20.1 0-5.3-1.8-9.7-5.5-13.4 -3.6-3.4-10.9-8.2-22.1-14.2 -14.2-7.6-23.5-13.6-28-18 -5.5-5.4-8.3-12-8.3-20 0-8.4 3.5-15.6 10.6-21.5 7.1-5.9 16.1-8.9 27-8.9 7.8 0 15.3 1 22.6 2.9 5.6 1.5 8.8 3.5 9.5 5.8 1.5 4.9 2.5 11 3 18.2 0.1 2.6-0.8 4.1-2.6 4.4 -2.4 0.4-4-0.4-5-2.4 -3.7-7.6-8-12.9-12.8-16 -4.4-2.8-10.2-4.3-17.3-4.3 -6.3 0-11.4 1.5-15.1 4.5 -3.7 3-5.5 7.2-5.5 12.6 0 5.1 1.8 9.5 5.5 13.2 3.5 3.5 9.8 7.5 19.1 12.2 14.3 7.1 24.1 13.2 29.5 18.2C664.9 451.9 668.3 459 668.3 467z"/><path d="M785.4 412.4c0 11.5-4.7 20.6-14.1 27.2 -9 6.2-20.6 9.4-34.9 9.4 -1.1 0-3.1-0.1-5.8-0.3 -2.7-0.2-4.2-0.3-4.5-0.3 -0.6 0-0.9 0.9-0.9 2.8v32.5c0 2.9 0.6 4.7 1.8 5.5 1.2 0.9 4.4 1.7 9.6 2.6 3.3 0.6 5 1.8 5 3.5 0 1.5-0.3 2.5-0.8 2.8 -0.5 0.4-2.1 0.5-4.5 0.4 -10.9-0.5-22.9-0.2-35.8 0.7 -2.6 0.2-3.9-0.9-3.9-3.2 0-1.6 1.3-2.5 3.9-2.7 5.9-0.6 8.9-3.8 8.9-9.7v-87c0-5.7-3.4-9.3-10.1-10.6 -3.3-0.7-5-1.7-5-3.2 0-1.9 0.5-3 1.4-3.4 0.6-0.2 2-0.2 4.2 0.2 2.8 0.5 6.8 0.8 12.1 0.8 2.7 0 7.5-0.1 14.4-0.4 6.9-0.3 12.5-0.4 16.8-0.4 13 0 23.2 2.7 30.7 8.2C781.4 393.6 785.4 401.8 785.4 412.4zM767.8 414.4c0-10.6-2.5-18-7.4-22.2 -4.7-4-12.5-6-23.6-6 -4.5 0-7.6 0.6-9.2 1.9 -1.6 1.2-2.4 3.9-2.4 8v43.5c0 1.7 4 2.5 12.1 2.5 9.4 0 16.8-2.4 22.3-7.2C765 430.1 767.8 423.3 767.8 414.4z"/><path d="M936.2 438.8c0 17.5-6.5 32.3-19.4 44.5 -12.7 12-28 18-45.8 18 -18.8 0-34.3-5.6-46.7-16.9 -12.7-11.6-19.1-26.6-19.1-45 0-17.8 6.4-32.7 19.3-44.8 12.7-11.9 28.2-17.8 46.5-17.8 18.6 0 34.1 5.8 46.5 17.3C930 405.8 936.2 420.7 936.2 438.8zM917.8 441.9c0-17.6-4.8-31.5-14.4-41.7 -9.3-9.8-21.5-14.7-36.7-14.7 -12.6 0-22.9 4.7-31 13.9 -8.1 9.3-12.1 21.4-12.1 36.3 0 17.9 4.7 31.9 14.1 42.1 9.1 9.9 21.5 14.9 37.2 14.9 12.7 0 23-4.7 31-14C913.8 469.3 917.8 457.1 917.8 441.9z"/><path d="M1067 498.8c0.1 1.4-1.1 2.1-3.5 2.1 -21.7 0-42.2-18.6-61.5-55.8 -7.4 0.4-11.4 0.5-11.9 0.5v38.1c0 2.9 0.7 4.7 2.1 5.7 1.4 0.9 4.5 1.8 9.3 2.5 3.3 0.5 5 1.7 5 3.5 0 1.5-0.3 2.5-0.8 2.8 -0.5 0.4-2.1 0.5-4.5 0.4 -10.9-0.5-22.9-0.2-35.8 0.7 -2.6 0.2-3.9-0.9-3.9-3.2 0-1.6 1.3-2.5 3.9-2.7 5.9-0.6 8.9-3.8 8.9-9.7v-87c0-5.7-3.4-9.3-10.1-10.6 -3.3-0.7-5-1.7-5-3.2 0-2.2 1.1-3.4 3.4-3.4 0.7 0 1.4 0.1 2.2 0.2 2.5 0.4 6.3 0.5 11.4 0.5 1.7 0 6-0.1 12.8-0.3 6.8-0.2 13.2-0.3 19.1-0.3 12.1 0 21.7 2.3 28.7 6.8 7.9 5 11.8 12.4 11.8 22.2 0 16.8-9.7 27.8-29 33.2 6.2 14 13.4 26.1 21.8 36.1 8.5 10.3 16.2 16 23.1 17.1C1065.8 495.5 1066.8 496.7 1067 498.8zM1030.5 411c0-9-2.3-15.3-6.9-19.1 -4.6-3.8-11.9-5.7-22.1-5.7 -4.5 0-7.6 0.6-9.2 1.9 -1.6 1.2-2.4 3.9-2.4 8v42.8c14.6-0.5 25.2-3 31.6-7.7C1027.5 426.8 1030.5 420.1 1030.5 411z"/><path d="M1196.3 408.1c-0.1 1.1-0.2 1.8-0.4 2.2 -0.2 0.4-0.8 0.7-1.9 0.9 -2.2 0.5-3.7-0.4-4.4-2.5 -2.6-8-5.7-13.4-9.3-16.1 -5-3.7-13.6-5.5-26-5.5 -5 0-7.8 0.5-8.3 1.6 -0.2 0.4-0.3 0.9-0.3 1.5v90.5c0 3.9 0.9 6.6 2.7 8.1s5.4 3 10.8 4.2c2.3 0.5 3.6 0.8 3.9 1 0.9 0.5 1.2 1.7 0.9 3.5 -0.2 1.4-0.8 2.2-2 2.3 -0.1 0.1-1.4 0-3.7-0.3 -16-1.4-29.2-1.4-39.6-0.2 -2.5 0.3-4.1 0.3-4.8 0 -0.6-0.3-1-1-1.2-2.2 -0.5-1.9 0.6-3.2 3.2-3.9 5.2-1.3 8.7-2.9 10.5-4.8 2.1-2.1 3.1-5.5 3.1-10.3v-88c0-1.7-1.1-2.8-3.3-3.1 -0.2-0.1-2-0.1-5.4-0.1 -11.5 0-20 2-25.4 6 -4.1 3-7.8 8.4-11 16.3 -1 2.5-2.4 3.3-4.3 2.5 -2.1-0.5-2.8-1.6-2.3-3.4 2.1-6.5 3.2-15.8 3.2-27.7 0-1.4 1.9-2 5.5-1.7 13.1 0.9 27.5 1.3 43.4 1.3 30 0 49.5-0.6 58.4-1.8 3.4-0.5 5.2 0.1 5.5 1.6C1195.7 388.2 1196.5 397.5 1196.3 408.1z"/></svg>