<svg height="512pt" viewBox="-11 0 512 512" width="512pt" xmlns="http://www.w3.org/2000/svg"><path d="m490 267c0 135.308594-109.691406 245-245 245s-245-109.691406-245-245 109.691406-245 245-245 245 109.691406 245 245zm0 0" fill="#37c47a"/><path d="m412.511719 277.921875 1.316406-.441406c2.527344-.84375 5.257813-1.269531 8.117187-1.269531 5.976563 0 11.765626 1.882812 16.019532 5.121093.171875-4.378906-1.476563-8.84375-5.0625-12.429687-5.039063-5.039063-12.90625-7.550782-20.390625-7.128906zm0 0" fill="#ffd782"/><path d="m250.300781 40.679688c13.4375 13.4375 20.675781 36.335937 24.378907 53.175781l.171874.785156h17.296876l.171874-.785156c3.703126-16.839844 10.941407-39.738281 24.378907-53.175781.957031-.953126 1.957031-1.839844 2.992187-2.675782 0-.167968.007813-.335937.007813-.503906 0-20.710938-16.789063-37.5-37.5-37.5-20.242188 0-36.730469 16.042969-37.464844 36.105469 1.980469 1.324219 3.84375 2.851562 5.566406 4.574219zm0 0" fill="#b7092b"/><path d="m250.300781 40.679688c13.4375 13.4375 20.675781 36.335937 24.378907 53.175781l.171874.785156h17.296876l.171874-.785156c.046876-.222657.105469-.457031.15625-.683594-10.265624-16.503906-21.777343-38.773437-21.777343-55.671875 0-16.132812 10.1875-29.882812 24.480469-35.175781-4.046876-1.496094-8.414063-2.324219-12.980469-2.324219-20.242188 0-36.726563 16.042969-37.464844 36.105469 1.980469 1.324219 3.84375 2.851562 5.566406 4.574219zm0 0" fill="#a00026"/><path d="m199.722656 94.644531h76.148438c-3.902344-18.164062-11.273438-41.082031-24.867188-54.671875-14.644531-14.644531-38.386718-14.644531-53.03125 0-14.644531 14.644532-14.644531 38.386719 0 53.035156.554688.554688 1.144532 1.097657 1.75 1.636719zm0 0" fill="#fe3745"/><path d="m199.722656 94.644531h31c-.605468-.539062-1.195312-1.082031-1.75-1.636719-14.644531-14.648437-14.644531-38.390624 0-53.035156 3.285156-3.28125 7.023438-5.824218 11.015625-7.632812-13.816406-6.269532-30.652343-3.726563-42.015625 7.632812-14.644531 14.644532-14.644531 38.386719 0 53.035156.554688.554688 1.144532 1.097657 1.75 1.636719zm0 0" fill="#ea2a3d"/><path d="m367.277344 94.644531c.605468-.539062 1.195312-1.082031 1.75-1.636719 14.644531-14.648437 14.644531-38.390624 0-53.035156-14.644532-14.644531-38.386719-14.644531-53.03125 0-13.59375 13.589844-20.964844 36.507813-24.867188 54.671875zm0 0" fill="#fe3745"/><path d="m318.003906 94.644531c4.296875-15.972656 11.269532-33.484375 22.457032-44.671875 7.585937-7.585937 17.617187-11.234375 27.558593-10.957031-14.707031-13.671875-37.710937-13.355469-52.027343.957031-13.589844 13.589844-20.960938 36.507813-24.863282 54.671875zm0 0" fill="#ea2a3d"/><path d="m169.648438 262.316406 91.3125-11.671875c.773437-.101562 1.550781-.152343 2.3125-.152343 9.105468 0 15.972656 6.984374 15.972656 16.246093 0 10.335938-8.257813 20.324219-18.40625 22.269531l-53.535156 10.25c-11.046876 2.117188-20.035157 12.988282-20.035157 24.234376 0 5 1.816407 9.582031 5.117188 12.910156 3.269531 3.300781 7.742187 5.121094 12.589843 5.117187.925782 0 1.875-.066406 2.8125-.199219l100.1875-14.109374c10.785157-1.519532 27.328126-7.019532 36.875-12.261719l65.496094-35.957031c.996094-.546876 2.058594-1.007813 3.167969-1.394532v-125.597656h-262.628906v116.6875c6.285156-3.234375 13.117187-5.648438 18.761719-6.371094zm0 0" fill="#445ea0"/><path d="m169.648438 262.316406 11.730468-1.5v-108.816406h-30.492187v116.6875c6.285156-3.234375 13.117187-5.648438 18.761719-6.371094zm0 0" fill="#2e4c89"/><path d="m260.960938 250.644531c.773437-.097656 1.550781-.148437 2.3125-.148437 9.105468 0 15.972656 6.984375 15.972656 16.246094 0 10.332031-8.257813 20.324218-18.40625 22.265624l-6.558594 1.257813v44.507813l53.695312-7.5625c.6875-.097657 1.40625-.214844 2.140626-.34375v-174.867188h-55.835938v99.496094zm0 0" fill="#fe3745"/><path d="m260.960938 250.644531c.773437-.097656 1.550781-.148437 2.3125-.148437 6.800781 0 12.351562 3.898437 14.726562 9.730468v-108.226562h-23.71875v99.496094zm0 0" fill="#ea2a3d"/><path d="m260.835938 289.007812-6.554688 1.257813v44.507813l23.71875-3.339844v-57.726563c-2.664062 7.523438-9.34375 13.804688-17.164062 15.300781zm0 0" fill="#ea2a3d"/><path d="m440.714844 282.394531c-7.535156-7.535156-21.417969-9.460937-30.851563-4.28125l-65.496093 35.960938c-9.433594 5.179687-25.875 10.644531-36.53125 12.148437l-100.1875 14.109375c-10.660157 1.5-19.378907-6.078125-19.378907-16.839843 0-10.765626 8.648438-21.226563 19.21875-23.25l53.535157-10.25c10.574218-2.023438 19.222656-12.488282 19.222656-23.25 0-10.765626-8.734375-18.457032-19.410156-17.089844l-91.316407 11.671875c-10.675781 1.363281-25.636719 8.707031-33.25 16.320312l-48.992187 48.992188 94.195312 94.199219 142.472656-37.5625c10.40625-2.742188 26.011719-10.210938 34.675782-16.597657l80.039062-58.972656c8.664063-6.386719 9.589844-17.773437 2.054688-25.308594zm0 0" fill="#ffc987"/><path d="m100.464844 339.824219 69.992187-69.996094c3.867188-3.867187 9.636719-7.660156 15.773438-10.640625l-16.707031 2.136719c-10.675782 1.363281-25.640626 8.707031-33.25 16.316406l-48.996094 48.996094zm0 0" fill="#ffaf68"/><path d="m247 93.644531h70v59.355469h-70zm0 0" fill="#ea2a3d"/><path d="m247 93.644531h22v59.355469h-22zm0 0" fill="#b7092b"/><path d="m423.101562 93.644531h-106.984374v59.355469h106.984374c2.75 0 5-2.25 5-5v-49.355469c0-2.75-2.25-5-5-5zm0 0" fill="#2e4c89"/><path d="m141.296875 93.644531c-2.75 0-5 2.25-5 5v49.355469c0 2.75 2.25 5 5 5h106.984375v-59.355469zm0 0" fill="#2e4c89"/><path d="m167.015625 148v-49.355469c0-2.75 2.25-5 5-5h-30.71875c-2.75 0-5 2.25-5 5v49.355469c0 2.75 2.25 5 5 5h30.71875c-2.75 0-5-2.25-5-5zm0 0" fill="#293d7c"/><path d="m188.878906 426.824219-104.28125-104.277344c-1.945312-1.945313-5.125-1.945313-7.070312 0l-16.710938 16.707031 111.351563 111.351563 16.710937-16.707031c1.941406-1.945313 1.941406-5.128907 0-7.074219zm0 0" fill="#fff"/><path d="m84.105469 362.542969 20.246093-20.242188-19.753906-19.753906c-1.945312-1.945313-5.125-1.945313-7.070312 0l-16.710938 16.707031zm0 0" fill="#eef6ff"/><path d="m58.53125 335.554688c-1.945312-1.945313-5.125-1.945313-7.070312 0l-30.566407 30.566406c24.519531 55.351562 68.933594 99.921875 124.183594 124.632812l30.789063-30.789062c1.945312-1.945313 1.945312-5.128906 0-7.074219zm0 0" fill="#293d7c"/><path d="m58.53125 335.554688c-1.945312-1.945313-5.125-1.945313-7.070312 0l-30.566407 30.566406c24.519531 55.351562 68.933594 99.921875 124.183594 124.632812l30.789063-30.789062c1.945312-1.945313 1.945312-5.128906 0-7.074219zm0 0" fill="#293d7c"/><path d="m83.960938 364.628906c.671874-.667968 1.488281-1.089844 2.347656-1.296875l-27.777344-27.777343c-1.945312-1.945313-5.125-1.945313-7.070312 0l-30.566407 30.566406c6.15625 13.890625 13.566407 27.105468 22.082031 39.496094zm0 0" fill="#1a2b63"/><path d="m430.253906 294.976562c-14.722656 0-26.660156 11.933594-26.660156 26.660157 0 3.675781.746094 7.175781 2.089844 10.363281l32.976562-24.296875c4.488282-3.308594 6.882813-7.964844 7.113282-12.726563zm0 0" fill="#ffe2b8"/><path d="m255.28125 267.648438 24.835938-3.070313c-1.082032-9.605469-9.335938-16.195313-19.28125-14.925781l-32.320313 4.132812c5.050781 9.421875 15.519531 15.253906 26.765625 13.863282zm0 0" fill="#ffe2b8"/><path d="m408.5 59c-1.496094 0-2.804688-.996094-3.203125-2.4375-4.488281-16.25-7.609375-19.371094-23.859375-23.859375-1.441406-.394531-2.4375-1.707031-2.4375-3.203125s.996094-2.804688 2.4375-3.203125c16.25-4.488281 19.371094-7.609375 23.859375-23.855469.398437-1.445312 1.707031-2.441406 3.203125-2.441406s2.804688.996094 3.203125 2.441406c4.488281 16.246094 7.609375 19.367188 23.859375 23.855469 1.441406.398437 2.4375 1.707031 2.4375 3.203125s-.996094 2.804688-2.4375 3.203125c-16.25 4.488281-19.371094 7.609375-23.859375 23.859375-.398437 1.441406-1.707031 2.4375-3.203125 2.4375zm0 0" fill="#ffaf10"/><path d="m391.753906 22.792969c-2.714844 1.246093-6.0625 2.328125-10.3125 3.503906-1.445312.398437-2.441406 1.707031-2.441406 3.203125s.996094 2.804688 2.441406 3.203125c16.246094 4.488281 19.367188 7.609375 23.855469 23.859375.398437 1.441406 1.707031 2.4375 3.203125 2.4375s2.804688-.996094 3.203125-2.4375c1.175781-4.253906 2.257813-7.601562 3.503906-10.316406-4.410156-15.863282-7.589843-19.042969-23.453125-23.453125zm0 0" fill="#ef9614"/><path d="m101 208c-1.824219 0-3.425781-1.21875-3.910156-2.976562-5.476563-19.828126-9.285156-23.636719-29.113282-29.113282-1.757812-.484375-2.976562-2.085937-2.976562-3.910156s1.21875-3.425781 2.976562-3.910156c19.832032-5.476563 23.640626-9.285156 29.113282-29.113282.484375-1.757812 2.085937-2.976562 3.910156-2.976562s3.425781 1.21875 3.910156 2.976562c5.476563 19.828126 9.285156 23.636719 29.113282 29.113282 1.757812.484375 2.976562 2.085937 2.976562 3.910156s-1.21875 3.425781-2.976562 3.910156c-19.828126 5.476563-23.636719 9.285156-29.113282 29.113282-.484375 1.757812-2.085937 2.976562-3.910156 2.976562zm0 0" fill="#ffd00d"/><path d="m79.976562 164.910156c-.34375-.097656-.660156-.246094-.960937-.417968-3.019531 1.246093-6.628906 2.378906-11.039063 3.597656-1.757812.484375-2.976562 2.085937-2.976562 3.910156s1.21875 3.425781 2.976562 3.910156c19.828126 5.476563 23.636719 9.285156 29.113282 29.113282.484375 1.757812 2.085937 2.976562 3.910156 2.976562s3.425781-1.21875 3.910156-2.976562c1.328125-4.808594 2.558594-8.667969 3.941406-11.84375-5.347656-19.085938-9.335937-22.875-28.875-28.269532zm0 0" fill="#ffaf10"/><path d="m457.5 223c-1.496094 0-2.804688-.996094-3.203125-2.4375-4.488281-16.25-7.609375-19.371094-23.859375-23.859375-1.441406-.394531-2.4375-1.707031-2.4375-3.203125s.996094-2.804688 2.4375-3.203125c16.25-4.488281 19.371094-7.609375 23.859375-23.855469.394531-1.441406 1.707031-2.441406 3.203125-2.441406s2.804688 1 3.203125 2.441406c4.488281 16.246094 7.609375 19.367188 23.859375 23.855469 1.441406.398437 2.4375 1.707031 2.4375 3.203125s-.996094 2.804688-2.4375 3.203125c-16.25 4.488281-19.371094 7.609375-23.859375 23.859375-.398437 1.441406-1.707031 2.4375-3.203125 2.4375zm0 0" fill="#ffaf10"/><path d="m440.753906 186.792969c-2.714844 1.246093-6.0625 2.328125-10.3125 3.503906-1.445312.398437-2.441406 1.707031-2.441406 3.203125s.996094 2.804688 2.441406 3.203125c16.246094 4.488281 19.367188 7.609375 23.855469 23.859375.398437 1.441406 1.707031 2.4375 3.203125 2.4375s2.808594-.996094 3.203125-2.4375c1.175781-4.253906 2.257813-7.601562 3.507813-10.316406-4.414063-15.863282-7.59375-19.042969-23.457032-23.453125zm0 0" fill="#ef9614"/><path d="m155 458.5c0 5.246094-4.253906 9.5-9.5 9.5s-9.5-4.253906-9.5-9.5 4.253906-9.5 9.5-9.5 9.5 4.253906 9.5 9.5zm0 0" fill="#ffaf10"/></svg>