<svg xmlns="http://www.w3.org/2000/svg" viewBox="0 0 512 512"><path d="M194.6 382.7c-35.6 0-64.6 29-64.6 64.6s29 64.6 64.6 64.6c35.6 0 64.6-29 64.6-64.6S230.2 382.7 194.6 382.7zM194.6 473.2c-14.3 0-25.9-11.6-25.9-25.9 0-14.3 11.6-25.9 25.9-25.9 14.3 0 25.9 11.6 25.9 25.9C220.4 461.6 208.9 473.2 194.6 473.2z"/><path d="M385.9 382.7c-35.6 0-64.6 29-64.6 64.6s29 64.6 64.6 64.6c35.6 0 64.6-29 64.6-64.6S421.6 382.7 385.9 382.7zM385.9 473.2c-14.3 0-25.9-11.6-25.9-25.9 0-14.3 11.6-25.9 25.9-25.9 14.3 0 25.9 11.6 25.9 25.9C411.8 461.6 400.2 473.2 385.9 473.2z"/><path d="M498.1 126.3c-3.7-4.6-9.3-7.3-15.2-7.3H143.3l-17.6-89.1c-1.5-7.8-7.7-13.9-15.5-15.3L32.6 0.3C22-1.6 12 5.4 10 15.9s5 20.6 15.6 22.6l64.6 11.8 56.9 287.7c1.8 9.1 9.8 15.6 19 15.6h271.5c9 0 16.9-6.2 18.9-15l45.3-195.9C503.1 136.9 501.8 130.9 498.1 126.3zM422.2 314.8H182.1l-31.1-157.1h307.5L422.2 314.8z"/></svg>