<svg xmlns="http://www.w3.org/2000/svg" viewBox="0 0 512 512"><path d="M202.7 320h-57.4l19.5-39 33.1 16.6c4 2 8.8 1.3 12.1-1.7 3.2-3 4.3-7.8 2.6-11.9l-53.3-128c-1.6-4-5.5-6.6-9.8-6.6H10.7c-4.3 0-8.2 2.6-9.9 6.6 -1.6 4-0.7 8.6 2.3 11.6l37.2 37.2L5 275.5c-7.1 14.2-6.3 30.7 2 44.2 2.2 3.6 4.9 6.8 7.9 9.6l74.7 107.8c13.9 20.1 36.9 32.2 61.4 32.2h51.8c5.9 0 10.7-4.8 10.7-10.7v-128C213.4 324.8 208.6 320 202.7 320zM30.8 314.9l-0.7-1c-0.9-1.3-2.1-2.4-3.5-3.2 -0.6-0.7-1-1.4-1.5-2.2 -4.4-7.2-4.8-16-1.1-23.5l38.8-77.7c2-4.1 1.2-9.1-2-12.3l-24.4-24.4h105.8l39.6 95 -17-8.5c-5.3-2.6-11.7-0.5-14.3 4.8L121.5 320H45.7C40.2 320 35 318.2 30.8 314.9zM192.1 448h-41.1c-17.5 0-33.9-8.6-43.9-23l-57.9-83.7h78.7c0.1 0 0.3 0 0.4 0h63.8V448z"/><path d="M496.8 311.2c-4.9-3.4-11.5-2.2-14.8 2.7l-76.9 111.1C395.1 439.4 378.7 448 361.2 448h-30.5c-5.9 0-10.7 4.8-10.7 10.7s4.8 10.7 10.7 10.7h30.5c24.5 0 47.4-12 61.4-32.1l76.9-111.1C502.8 321.2 501.6 314.6 496.8 311.2z"/><path d="M506.9 275.1l-49.5-88.3c-2.9-5.1-9.4-7-14.5-4.1l-96 53.3c-2.6 1.4-4.4 3.8-5.2 6.7 -0.7 2.8-0.3 5.8 1.3 8.3L386.2 320h-55.4c-5.9 0-10.7 4.8-10.7 10.7s4.8 10.7 10.7 10.7h74.5c0.1 0 0.1 0 0.2 0 0 0 0.1 0 0.1 0h60.9c15.9 0 30.3-8.1 38.7-21.6C513.5 306.3 514.2 289.7 506.9 275.1zM486.9 308.6C482.5 315.7 474.8 320 466.4 320h-55.1l-44.2-70.8 76.9-42.7 44.1 78.6C491.8 292.6 491.4 301.4 486.9 308.6z"/><path d="M444.7 45.5c-3.3-3.1-8.1-3.8-12.1-1.7l-34.2 17.1 -24.8-37.2C363.7 8.9 347.1 0 329.2 0H202.7c-1.5 0-2.9 0.3-4.2 0.8 -2.3-0.3-4.8-0.4-7.2-0.5 -23-0.5-44.3 9.9-58.2 28.4L87.5 89.6c-1.9 2.5-2.5 5.6-1.9 8.7 0.7 3 2.6 5.6 5.3 7.1l117.3 64c4.8 2.6 10.7 1.2 13.8-3.2l47.6-66.6 24 35 -31.7 15.9c-4.1 2-6.4 6.5-5.8 11.1 0.7 4.5 4.1 8.2 8.7 9l117.3 21.3c0.6 0.1 1.3 0.2 1.9 0.2 4.2 0 8.2-2.5 9.9-6.6l53.3-128C449 53.3 447.9 48.6 444.7 45.5zM210.2 146.1l-98.2-53.6 38.3-51.1c9.7-12.9 24.2-20.3 40.7-19.8 16.2 0.3 30.7 8.1 39.9 21.5l26 37.8L210.2 146.1zM377.5 169.3l-77.4-14.1 14-7c2.8-1.4 4.8-3.9 5.6-6.9 0.8-3 0.2-6.2-1.5-8.7L248.4 31.1c-2.4-3.5-5.1-6.8-8-9.7h88.9c10.7 0 20.7 5.3 26.6 14.3l30 45c3 4.5 8.8 6 13.7 3.6l17-8.5L377.5 169.3z"/><path d="M330.7 341.3c5.9 0 10.7-4.8 10.7-10.7V288c0-4.6-3-8.7-7.4-10.2 -4.4-1.4-9.2 0.1-11.9 3.9l-85.3 117.3c-2.9 4.1-2.7 9.6 0.7 13.4l85.3 96c2.1 2.3 5 3.6 8 3.6 1.3 0 2.6-0.2 3.8-0.7 4.1-1.6 6.9-5.5 6.9-10v-42.7c0-5.9-4.8-10.7-10.7-10.7s-10.7 4.8-10.7 10.7v14.6l-61-68.6 61-83.9v9.9C320 336.6 324.8 341.3 330.7 341.3z"/></svg>