<svg xmlns="http://www.w3.org/2000/svg" viewBox="0 0 512 512"><path d="M386.7 304.4c-35.6 0-64.5 29-64.5 64.5s29 64.5 64.5 64.5c35.6 0 64.5-29 64.5-64.5S422.3 304.4 386.7 304.4zM386.7 401.2c-17.8 0-32.3-14.5-32.3-32.3 0-17.8 14.5-32.3 32.3-32.3 17.8 0 32.3 14.5 32.3 32.3C419 386.7 404.5 401.2 386.7 401.2z"/><path d="M166.2 304.4c-35.6 0-64.5 29-64.5 64.5s29 64.5 64.5 64.5 64.5-29 64.5-64.5S201.8 304.4 166.2 304.4zM166.2 401.2c-17.8 0-32.3-14.5-32.3-32.3 0-17.8 14.5-32.3 32.3-32.3 17.8 0 32.3 14.5 32.3 32.3C198.5 386.7 184 401.2 166.2 401.2z"/><path d="M430.2 119.7c-2.7-5.4-8.3-8.9-14.4-8.9h-85v32.3h75l43.9 87.4 28.8-14.5L430.2 119.7z"/><rect x="216.2" y="353.3" width="122.1" height="32.3"/><path d="M117.8 353.3H61.8c-8.9 0-16.1 7.2-16.1 16.1 0 8.9 7.2 16.1 16.1 16.1h55.9c8.9 0 16.1-7.2 16.1-16.1C133.9 360.6 126.7 353.3 117.8 353.3z"/><path d="M508.6 254.7l-31.7-40.9c-3-3.9-7.8-6.2-12.7-6.2H346.9V94.7c0-8.9-7.2-16.1-16.1-16.1H61.8c-8.9 0-16.1 7.2-16.1 16.1s7.2 16.1 16.1 16.1h252.8v112.9c0 8.9 7.2 16.1 16.1 16.1h125.5l23.5 30.3v83.2h-44.6c-8.9 0-16.1 7.2-16.1 16.1 0 8.9 7.2 16.1 16.1 16.1h60.8c8.9 0 16.1-7.2 16.1-16.1V264.6C512 261 510.8 257.5 508.6 254.7z"/><path d="M116.7 271.6H42.5c-8.9 0-16.1 7.2-16.1 16.1 0 8.9 7.2 16.1 16.1 16.1h74.2c8.9 0 16.1-7.2 16.1-16.1C132.8 278.8 125.6 271.6 116.7 271.6z"/><path d="M153.8 208.1H16.1C7.2 208.1 0 215.4 0 224.3s7.2 16.1 16.1 16.1h137.7c8.9 0 16.1-7.2 16.1-16.1S162.7 208.1 153.8 208.1z"/><path d="M180.2 144.7H42.5c-8.9 0-16.1 7.2-16.1 16.1 0 8.9 7.2 16.1 16.1 16.1h137.7c8.9 0 16.1-7.2 16.1-16.1C196.3 151.9 189.1 144.7 180.2 144.7z"/></svg>