<svg xmlns="http://www.w3.org/2000/svg" viewBox="0 0 1963.61 1087.63"><g id="Layer_2" data-name="Layer 2"><g id="Layer_1-2" data-name="Layer 1"><path d="M1963.61,938.31H1800.53c-4.06-73.69-33.89-132.53-95.56-172.73-39.37-25.67-83-34.32-129.81-31.19-74.25,5-179.11,70.4-186,202.15H753.35c-2.13-42.37-13.41-82.34-41-120.22H1320.8V107.26h342.94c0,20.91-.51,42.41.21,63.87.36,10.68,1.51,21.77,4.83,31.83,32.57,98.75,65.86,197.25,98.39,296,3.72,11.3,9.4,17.76,20.53,22.42,58.86,24.65,117.32,50.24,175.91,75.5ZM1688.35,514.05c-.56-4.76-.44-7.34-1.2-9.62-24.63-74.44-49.56-148.78-73.81-223.34-3.72-11.44-11-11.73-20.39-11.69-51.09.19-102.19.05-153.29.13-6.72,0-13.44.59-20.12.9V514.05Z"/><path d="M1249.91,0V767H.43V0Z"/><path d="M1445.65,935c1.62-82.58,70.29-148.45,152.83-146.62,82,1.82,147.73,69.66,146.47,151.07-1.26,82.29-71.23,150.51-151.93,148.13C1509.85,1085.13,1444,1017,1445.65,935Zm231,2.33a81,81,0,0,0-81.62-81.2c-45.52.22-81,36.11-80.88,81.79s35.94,81.22,81.47,81.1C1640.91,1018.89,1676.77,982.74,1676.63,937.32Z"/><path d="M549,788.29c82.75.28,149.58,67.8,148.87,150.39-.71,81.72-67.6,148.61-148.94,148.94s-150.4-68.48-150.29-150C398.75,855.55,466.75,788,549,788.29Zm80.73,148.46c-.46-45.4-37.09-81.31-82.22-80.59-45.51.72-80.94,36.91-80.57,82.31.37,45.15,36.82,80.82,82.28,80.55C594.41,1018.74,630.19,982.18,629.74,936.75Z"/><path d="M0,895.09V816.68H377.22c-12.62,37.71-25.75,76.92-40,119.41C227.18,944.06,112.23,940.29,0,895.09Z"/></g></g></svg>