<svg xmlns="http://www.w3.org/2000/svg" viewBox="0 0 1972.16 1093.61"><g id="Layer_2" data-name="Layer 2"><g id="Layer_1-2" data-name="Layer 1"><path d="M0,0H1254.92V772.9h-24.53q-601.8,0-1203.58.05c-8.94,0-17.87.83-26.81,1.27ZM444.68,522.54c8.76-9.35,13.87-14.57,18.71-20C500,461.3,538,421.28,572.51,378.41c26.55-33,36.88-72.83,32.67-115.63-4.34-44.18-30.11-75.08-73.45-85.61-45.8-11.13-88.87-2.69-129.38,21-14.16,8.28-18.08,20.4-16.84,35.76,1.57,19.52,6.33,21.34,24,13.08,21.24-9.92,42.91-21.09,65.59-25.33,46.35-8.65,78.6,22.55,75.93,69.78-1.76,31.24-14.12,59.07-33.65,82.41-29.17,34.87-60.68,67.78-91.45,101.29-12.14,13.23-25.19,25.62-37.38,38.81-12.07,13-15.72,30.25-7.54,44.36,4.16,7.18,20.37,10.07,31.21,10.23,62.25.93,124.52,0,186.77.77,17.35.23,24.75-5.75,24.79-23,0-16.72-6.23-25.15-24-24-13.42.9-26.94.17-40.42.17ZM802.49,281.18c0-16.84,0-30.85,0-44.86,0-27.67-3.62-30.58-30.88-29.35-14.75.67-22.22,5.15-20.82,21.7,1.43,17,.32,34.16.32,48.63-16.67,12.06-46.28-12.2-48.76,22.65-3,41.78,34,14,48.9,27.48,0,56.86-1,114.56.28,172.2,1.4,61.14,64.24,96.14,118,66.88,16-8.72,14.11-24.15,10.43-37.32-4.44-15.82-15.62-4.33-23.49-2.24-31.28,8.3-50.62-2.26-51.91-34.6-2.22-55.5-.62-111.14-.62-168.79,17.1,0,33.61-.53,50.06.16,15.41.64,28.54.34,27.84-20.82-.62-18.92-3.65-21.71-28.78-21.72Z"/><path d="M0,820.44H379.75c-13.16,39.38-26.48,79.22-41.06,122.81-13.24,0-32.39-1.25-51.34.21-92.71,7.18-182.28-8.57-270.5-35.31-5.42-1.64-11.22-2-16.85-3Z"/><path d="M1972.13,942.4h-163.8c-4-72.68-33.95-131.76-95.86-172.13-40.13-26.16-84.64-34.87-132.22-31.13-75,5.88-178.17,72.22-184.79,202.75H757c-1.88-42.88-14.1-83.23-41.26-121.37h611.4V108.8h343.19c.28,5.4,1,9.8.65,14.08-4.6,48.36,7.18,93.5,23.28,138.74,28.33,79.62,54.28,160.11,80.41,240.49,4,12.32,10.64,18.74,22.15,23.54q80.68,33.71,160.67,69.07c6.11,2.71,14,10.8,14,16.44C1972.35,720.86,1972.13,830.55,1972.13,942.4Zm-546-670.24v244.7h270.62c-2.73-9.4-4.61-16.76-7-24q-26.31-79.26-52.81-158.47c-6.7-20-8.14-47.88-22.14-57.72-14.86-10.45-41.77-4.26-63.43-4.45C1509.84,271.9,1468.33,272.16,1426.09,272.16Z"/><path d="M1602,793.08c82.85-.25,150.83,67.47,150.67,150.1-.16,82.38-69.12,151.11-150.93,150.43s-149-67.72-149.65-149.67C1451.37,861.41,1519,793.33,1602,793.08ZM1684,943a81.29,81.29,0,0,0-81.63-81.85c-45.64,0-81.54,36-81.54,81.79s35.77,81.73,81.49,81.75A81.13,81.13,0,0,0,1684,943Z"/><path d="M701.27,943.73c-.51,82.75-69.53,151.2-151.12,149.87-81.91-1.34-149.1-68.94-149.32-150.23-.22-82.27,68-150.37,150.63-150.3C634.52,793.14,701.79,860.79,701.27,943.73Zm-68.43-1.27c-.28-45.62-36.86-81.77-82.21-81.26-45.69.52-81.47,36.78-81.23,82.33.24,45.38,36.67,81.33,82.29,81.2C597.08,1024.59,633.13,988.05,632.84,942.46Z"/></g></g></svg>