<svg xmlns="http://www.w3.org/2000/svg" viewBox="0 0 1977.48 1096.56"><g id="Layer_2" data-name="Layer 2"><g id="Layer_1-2" data-name="Layer 1"><path d="M0,0H1258.3V775h-24.59Q630.29,775,26.88,775c-9,0-17.92.83-26.88,1.27ZM720.62,225.32c43.21,0,84.28-.75,125.3.34,18.12.48,23.55-6.47,23.46-23.63-.08-16.92-5.28-24.54-23.41-24.26-50.15.8-100.32.2-150.49.31-25.25.06-30,4.79-30.05,30.76q-.25,69.45,0,138.91c.05,28.74,4.15,31.63,32.71,30.19,24.85-1.25,50.12-2.88,74.66.09,43.12,5.23,63.64,29.58,64,70.31.39,44.13-23,73.89-64.06,81-37.34,6.43-73,.88-106.32-17.23-13.14-7.14-18.87-3-20.76,10.7-3,22.11,2.5,32.35,23.55,40,42.85,15.48,86.91,18.36,130.78,6.75,65.55-17.35,99.93-70.73,92.79-140.45-6.11-59.68-45.44-92.74-116.21-96.82-18.29-1.05-36.69-.15-55.94-.15ZM174.89,524c6.46-7.22,10.11-11.32,13.77-15.4,36.46-40.64,73.86-80.48,109-122.21,20-23.77,32.17-52.35,36.89-83.72,10.08-67-20.41-116-81.71-127.15-41.1-7.5-80.34.16-117.13,20.77-15.35,8.6-21.6,19.95-20.18,37.65,1.72,21.35,4.9,22.51,24.43,13.43,22.4-10.41,45.66-21.61,69.66-25.39,43.92-6.92,77,27.35,70.34,71.3-3.21,21.08-9.17,43.59-20.52,61.17-19,29.46-42.33,56.41-65.73,82.73-24.33,27.37-51.07,52.58-76.43,79-12.65,13.21-12.88,30.82-6.35,45,3,6.4,19.6,8.87,30.09,9,63,.8,126.1-.34,189.13.84,19.19.36,23.58-9.18,23.58-24.3s-6.21-23.34-23.42-23c-44.38.85-88.78.28-133.17.27Zm849-195.28c0,24.19-.28,49.84.07,75.48.49,35.94-1.63,72.28,2.93,107.73,7,54.62,67.1,82.38,116.26,56.51,10.43-5.49,17.74-28,9.91-38.89-2.78-3.85-15.16-2.93-22.36-1.08-33,8.48-50.72-3.69-53.5-38.06-.52-6.4-.66-12.84-.67-19.26q-.09-62.66,0-125.33V324.43c22.24,0,41.48-.78,60.62.24,16,.86,17.86-8,17.83-20.4,0-12.63-.6-23.26-18-22.52-19.68.84-39.42.2-58.34.2-1.1-3.7-1.75-4.89-1.77-6.09q-.25-21.21-.35-42.41c-.14-23.06-3.35-26.17-27-26-22.91.16-25.58,2.74-25.65,25,0,15.89,0,31.79,0,49.49-12.08,0-22.2.11-32.31,0-17-.22-15.81,12.6-15.43,23.08C977.44,341.09,1007.65,315.91,1023.88,328.67ZM534.85,538c.66-27.34-7.17-36.4-32-37-25.22-.57-34.32,8.35-35.1,34.42-.83,27.54,6.93,36.8,31.36,37.43C526.55,573.61,534.16,566.17,534.85,538Z"/><path d="M0,822.66H380.78c-13.2,39.48-26.56,79.43-41.17,123.14-13.28,0-32.49-1.26-51.48.21-93,7.19-182.77-8.6-271.23-35.41-5.44-1.65-11.26-2-16.9-3Z"/><path d="M1399.33,945.05H759.13c-2.1-43.42-14.08-84-41.44-122.16h612.87V109.09h344c.35,5.89,1.34,10.94.85,15.85-4.75,47.24,7.2,91.2,22.81,135.32,28.47,80.51,54.73,161.8,81.12,243,4,12.29,10.47,18.87,22.08,23.71q80.92,33.75,161.11,69.25c6.17,2.73,14.21,10.75,14.25,16.38.84,110,.62,220,.62,331.59H1813.19c-4-72.75-34.55-132.4-97.54-172.81-40.43-25.93-85.23-34.41-132.86-30.08C1505.42,748.36,1405.61,816.51,1399.33,945.05Zm30.73-672.13V518h272c-26.78-80.36-52.58-158.29-79.13-236-1.41-4.15-9.11-8.71-13.92-8.76C1549.91,272.71,1490.77,272.92,1430.06,272.92Z"/><path d="M1607,795.22c83.11.16,151,68.42,150.39,151.18-.62,82-68.1,149.51-150.07,150.16-82.24.65-151.07-67.92-151.32-150.74S1523.88,795.06,1607,795.22Zm-82,149.43c-.35,46,35.18,82.44,80.85,82.84s82.37-35.45,82.76-81c.39-45.75-35.36-82.37-81-82.94A81.2,81.2,0,0,0,1524.92,944.65Z"/><path d="M703.18,945.49c0,83-68.54,151.58-150.77,151.07C470,1096,401,1026.5,401.89,944.77c.88-82.27,68.07-149.14,150.27-149.55C635.43,794.81,703.22,862.27,703.18,945.49Zm-68.63-.25c-.17-45.76-36.69-82.07-82.2-81.72-45.76.36-81.83,36.7-81.69,82.33s36.58,81.68,82.29,81.64C598.5,1027.46,634.71,991,634.55,945.24Z"/></g></g></svg>