<svg xmlns="http://www.w3.org/2000/svg" viewBox="0 0 1964.48 1089.18"><g id="Layer_2" data-name="Layer 2"><g id="Layer_1-2" data-name="Layer 1"><path d="M0,0H1249.83V769.77H1225.4q-599.34,0-1198.7.05c-8.9,0-17.8.83-26.7,1.27ZM700.67,224.82c7.46-.38,13.67-.95,19.89-1,35.13-.09,70.29-.76,105.39.26,17.2.49,22.24-6.53,22.18-22.59s-3.53-25.24-22.34-24.94c-50.45.8-100.93.18-151.4.32-23.86.06-28.66,4.94-28.77,29.68q-.3,70.91,0,141.81c.1,24.86,4.45,28,29.69,27.14s51.08-3.12,76.08-.11c44.13,5.32,64.45,29.58,64.42,71,0,44.57-23.83,73-66.58,79.74-35.89,5.65-69.65-.65-102.16-16.59-4.87-2.39-14.74-2.74-17.57.33-10,10.82-3.54,39.25,10.35,44.78,58.92,23.49,118.33,27.38,175.36-4.44,46.4-25.89,67.55-84.64,53.87-140.25-11.88-48.31-51.14-77.54-108.4-79.91-19.59-.81-39.24-.13-60-.13Zm-498.46,7.56V522.82c-24.59,0-48.1.35-71.6-.12-17.21-.34-19.35,9.88-19.59,23.71-.26,14.67,5.22,20.61,20.27,20.49,61.34-.5,122.69-.65,184,.09,16.43.2,21.74-7.33,21.7-21.72,0-14.14-5.07-23.16-21.41-22.61-19,.65-38,.15-59,.15V500.16q0-150.48,0-301c0-22.15-2.84-25.14-25.28-25.26-6.3,0-13.73-.15-18.72,2.91-32.61,20-65.79,39.38-96.09,62.5-6.77,5.17-2.83,24.38-3.83,37.12,8.53-2,18-2.23,25.41-6.24C159.25,258.84,179.55,245.92,202.21,232.38Zm851.69,47.67c0-16.22,0-29.6,0-43,0-29.78-3.45-32.29-33-30.61-14.77.84-20.31,6.44-19.45,21.19,1,17,.23,34,.23,48.92-16.88,10.88-47.78-12.3-47.63,25.05.16,37.81,32,11.76,47.63,24.91,0,38.8-.26,80.11.1,121.42.18,20.38-.52,41.06,2.67,61.05,8.61,53.9,68.24,81.69,116.19,55.33,16.36-9,12.84-24.91,9.78-37.47-3.91-16.12-15.56-3.8-23.2-1.9-29.76,7.43-50.38-2.47-51.46-30.84-2.16-56.54-.64-113.22-.64-171.87,19.7,0,38.75-.89,57.66.27,16.36,1,19.28-7.24,19.15-20.85-.13-13-1.69-22.64-18.49-21.83C1094.42,280.74,1075.36,280.05,1053.9,280.05ZM516.16,531.81c-.31-25.81-9.32-34.69-34.61-34.13-24.16.53-32.39,9.9-32.3,36.78.09,26.58,8,34.65,33.76,34.6C509,569,516.52,560.51,516.16,531.81Z"/><path d="M0,817.12H378.21c-13.11,39.22-26.37,78.9-40.89,122.31-13.19,0-32.26-1.25-51.13.21-92.34,7.15-181.54-8.53-269.41-35.17-5.39-1.63-11.18-2-16.78-3Z"/><path d="M755.53,938.11c-4.3-22-6.37-43.15-12.87-62.86s-17.41-37.73-27.16-58.13h606.32V108.27h342.47c0,20.6-.52,41.39.21,62.14.4,11.32,1.26,23.12,4.76,33.76,32.5,98.74,65.88,197.21,98.25,296,4,12.29,10.68,18.62,22.11,23.39,53.57,22.38,106.8,45.59,160.23,68.32,8.61,3.66,14.69,7,14.63,18.82-.58,106.73-.37,213.46-.44,320.2a61.69,61.69,0,0,1-1,7.07H1800.93c-3.83-71.12-33.19-129.56-93.86-169.83-39.74-26.38-84-35.37-131.41-32.18-74.07,5-179.06,70.3-185.92,202.15Zm664.77-667V514.78h269.47c-2.49-8.74-4.14-15.46-6.31-22-18.28-55.05-36.51-110.12-55.08-165.07-6.27-18.56-8.49-43.89-21.68-53.19-13.4-9.46-38-3.28-57.78-3.38C1506.3,270.91,1463.68,271.06,1420.3,271.06Z"/><path d="M1596.65,789.87c82.59.46,149.82,68.51,148.86,150.67-1,81.51-68.39,148.54-149.56,148.64-81.92.1-149.87-68.05-149.79-150.24S1514.12,789.4,1596.65,789.87Zm-82,149.31c0,45.65,35.65,81.38,81.18,81.4a81.45,81.45,0,0,0,0-162.89C1550.4,857.7,1514.67,893.57,1514.67,939.18Z"/><path d="M548.62,789.87c82.69-.3,150,66.8,149.82,149.43-.14,82.4-68.33,150.57-149.91,149.88-81.24-.69-148.51-67.83-149.32-149C398.41,858.45,466.28,790.17,548.62,789.87Zm1.12,230.71c45.18-.25,81-36.8,80.55-82.22s-37-81.32-82.17-80.63c-45.52.69-81,36.88-80.62,82.27C467.86,985.16,504.28,1020.84,549.74,1020.58Z"/></g></g></svg>