<?xml version="1.0" encoding="iso-8859-1"?>
<!-- Generator: Adobe Illustrator 19.1.0, SVG Export Plug-In . SVG Version: 6.00 Build 0)  -->
<svg version="1.1" id="Capa_1" xmlns="http://www.w3.org/2000/svg" xmlns:xlink="http://www.w3.org/1999/xlink" x="0px" y="0px"
	 viewBox="0 0 482.874 482.874" style="enable-background:new 0 0 482.874 482.874;" xml:space="preserve">
<g>
	<path d="M412.149,70.761c-94.3-94.3-247.1-94.3-341.4,0c-90.8,90.7-94.2,235.8-10.2,330.6l2.5,2c-9.1,19.7-24.8,44-49.7,56.2
		c-8.2,4-6.3,16.3,2.7,17.7c27.2,4.3,66.3-0.5,102.6-28l0.5,0.4c92.5,54.4,213.6,41.9,293-37.5
		C506.449,317.861,506.449,165.061,412.149,70.761z M314.849,359.661c-6.9,3.1-14.1,5.7-21.4,7.8c-28,7.7-56,8-83.8-1
		c-33.6-10.9-56-33.8-69.3-66c-2.6-6.2-4.2-12.8-6.2-19.3h-26.3c-4.4,0-8-3.6-8-8v-17.8c0-4.4,3.6-8,8-8h21.9c0-4.9,0-9.6,0-14.5
		h-21.9c-4.4,0-8-3.6-8-8v-17.8c0-4.4,3.6-8,8-8h27.6l0.9-2.8c7.5-23.8,20.3-44,40.1-59.4c15.7-12.2,33.9-18.9,53.4-22
		c27.7-4.4,54.5-0.6,80.5,9.5c1.7,0.7,3.3,1.4,4.9,2.3c6.2,3.7,7.9,8.3,5.1,15c-2.9,7-5.8,14.1-9,21c-2.7,6-6.5,7.9-12.9,6.4
		c-8.8-2-17.4-4.7-26.2-6.5c-18.6-3.8-37-4-55,3.2c-15.5,6.1-25,17.9-31.4,32.7c-0.1,0.2-0.1,0.3-0.1,0.6h54c4.4,0,8,3.6,8,8v17.8
		c0,4.4-3.6,8-8,8h-61.7c-0.1,4.7,0,9.5,0,14.5h61.8c4.4,0,8,3.6,8,8v17.8c0,4.4-3.6,8-8,8h-56.4c6.8,19.4,17.9,34.5,38.6,41
		c16.6,5.2,33.4,4.9,50.2,1.4c8.7-1.8,17.2-4.4,25.9-6.4c6.8-1.6,10.5,0.3,13.4,6.6c3.2,7,6.2,14.1,9.1,21.3
		C323.249,351.461,321.549,356.561,314.849,359.661z"/>
</g>
<g>
</g>
<g>
</g>
<g>
</g>
<g>
</g>
<g>
</g>
<g>
</g>
<g>
</g>
<g>
</g>
<g>
</g>
<g>
</g>
<g>
</g>
<g>
</g>
<g>
</g>
<g>
</g>
<g>
</g>
</svg>
