<?xml version="1.0" encoding="iso-8859-1"?>
<!-- Generator: Adobe Illustrator 19.1.0, SVG Export Plug-In . SVG Version: 6.00 Build 0)  -->
<svg version="1.1" id="Capa_1" xmlns="http://www.w3.org/2000/svg" xmlns:xlink="http://www.w3.org/1999/xlink" x="0px" y="0px"
	 viewBox="0 0 485.739 485.739" style="enable-background:new 0 0 485.739 485.739;" xml:space="preserve">
<g>
	<g>
		<path d="M218.297,236.339L218.297,236.339c0.2,0,0.4,0,0.6,0c0.2,0,0.4,0,0.6,0l0,0c106.1-1.1,90.7-142.8,90.7-142.8
			c-4.3-94.6-83.5-93.8-91.3-93.5c-7.8-0.3-87-1.1-91.3,93.6C127.597,93.539,112.197,235.239,218.297,236.339z"/>
		<path d="M357.197,300.539c-35.9-21.2-70.1-37.8-70.1-37.8l-36.8,116.4l-21.5-61c37.8-52.7-2.7-55.3-9.9-55.4l0,0
			c-0.1,0-0.2,0-0.2,0c-0.1,0-0.2,0-0.2,0l0,0c-7.2,0.1-47.6,2.7-9.9,55.4l-21.5,61l-36.8-116.4c0,0-46.3,22.4-87.7,48.5
			c-31.2,19.6-37,40.8-37.9,71.3c0,0-0.5,103.2-0.1,103.2h193.8h91.8c-3.3-6-5.1-12.9-5.1-20.2v-53.3c0-13,6-24.9,15.7-32.8v-20.1
			C320.697,333.539,335.597,311.339,357.197,300.539z"/>
		<path d="M445.497,392.439c0.2-1.7,0.4-3.5,0.4-5.3v-28c0-23.9-19.5-43.4-43.4-43.4h-16.2c-23.9,0-43.4,19.5-43.4,43.4v28
			c0,1.8,0.1,3.5,0.3,5.2c-9.1,1.9-16,10.1-16,19.8v53.3c0,11.1,9.1,20.2,20.2,20.2h93.7c11.1,0,20.2-9.1,20.2-20.2v-53.3
			C461.297,402.639,454.497,394.539,445.497,392.439z M400.897,440.839c-0.9,0.7-1.2,1.3-1.1,2.4c0,4.8,0,9.5,0,14.3l0,0
			c0,3-2.5,5.5-5.5,5.5s-5.5-2.5-5.5-5.5l0,0c0-4.8,0-9.6,0-14.4c0-1-0.2-1.6-1.1-2.3c-4.3-3.2-5.8-8.6-3.6-13.4
			c1.8-4,5.9-6.6,10.1-6.6c0.7,0,1.3,0.1,2,0.2c5.4,1.1,9.1,5.4,9.2,10.8C405.397,435.539,403.897,438.639,400.897,440.839z
			 M423.797,387.239h-58.9v-28c0-11.8,9.6-21.3,21.3-21.3h16.2c11.8,0,21.3,9.6,21.3,21.3v28H423.797z"/>
	</g>
</g>
<g>
</g>
<g>
</g>
<g>
</g>
<g>
</g>
<g>
</g>
<g>
</g>
<g>
</g>
<g>
</g>
<g>
</g>
<g>
</g>
<g>
</g>
<g>
</g>
<g>
</g>
<g>
</g>
<g>
</g>
</svg>
