<svg height="512pt" viewBox="0 -46 512 512" width="512pt" xmlns="http://www.w3.org/2000/svg"><path d="m0 165v210c0 8.292969 6.710938 15 15 15h136v-240h-136c-8.289062 0-15 6.710938-15 15zm106 135c8.285156 0 15 6.714844 15 15s-6.714844 15-15 15-15-6.714844-15-15 6.714844-15 15-15zm0 0"/><path d="m489.5 225h-83.4375c-7.765625 0-14.0625-6.296875-14.0625-14.0625 0-8.800781 7.136719-15.9375 15.9375-15.9375h81.5625c12.425781 0 22.5-10.074219 22.5-22.5s-10.074219-22.5-22.5-22.5c-70.015625 0-55.546875 0-128.5 0v-105c0-24.847656-20.140625-44.99609375-44.984375-45-.007813 0-.011719 0-.015625 0-8.289062 0-15 6.710938-15 15 0 42.105469-8.871094 77.742188-38.585938 111.445312-13.210937 14.96875-32.78125 23.554688-53.671874 23.554688h-27.742188v240c17.617188 0 32.871094 1.367188 51.53125 6.546875l52.5 14.546875c36.863281 10.21875 62.066406 8.90625 100.550781 8.90625h43.917969c12.425781 0 22.5-10.074219 22.5-22.5s-10.074219-22.5-22.5-22.5h-23.4375c-7.765625 0-14.0625-6.296875-14.0625-14.0625v-1.875c0-7.765625 6.296875-14.0625 14.0625-14.0625h53.4375c12.425781 0 22.5-10.074219 22.5-22.5 0-12.429688-10.074219-22.5-22.5-22.5h-53.4375c-7.765625 0-14.0625-6.296875-14.0625-14.0625v-1.875c0-7.765625 6.296875-14.066406 14.0625-14.066406h83.4375c12.425781 0 22.5-10.070313 22.5-22.5 0-12.421875-10.074219-22.496094-22.5-22.496094zm0 0"/></svg>